<?xml version="1.0" encoding="UTF-8"?>
<svg version="1.1" xmlns="http://www.w3.org/2000/svg" width="412" height="413">
<path d="M0 0 C135.96 0 271.92 0 412 0 C412 136.29 412 272.58 412 413 C276.04 413 140.08 413 0 413 C0 276.71 0 140.42 0 0 Z " fill="#592DF1" transform="translate(0,0)"/>
<path d="M0 0 C1.10988281 0.72123047 1.10988281 0.72123047 2.2421875 1.45703125 C6.99402785 4.75546988 9.73997967 7.63245172 12 13 C12.85563472 18.88248869 11.30667215 23.20636521 8 28 C4.47558376 31.52441624 1.28066159 32.38497454 -3.5625 32.8125 C-11.00494364 32.57360675 -15.70614704 28.5229526 -21.38085938 24.19287109 C-36.50848308 13.04788173 -52.66281467 10.54417003 -70.875 10.5 C-71.93599915 10.49312668 -71.93599915 10.49312668 -73.01843262 10.4861145 C-96.65903672 10.4254677 -116.39866066 19.44142341 -134 35 C-134.63550781 35.55171875 -135.27101562 36.1034375 -135.92578125 36.671875 C-151.49796906 51.13432069 -161.42064289 73.37567528 -162.41015625 94.46875 C-163.05542865 121.84928098 -155.96241069 146.20108656 -137.2578125 166.67578125 C-122.69955439 181.89817742 -102.09928053 193.39094224 -80.77148438 194.10864258 C-77.01373032 194.1703075 -73.25824257 194.18560763 -69.5 194.1875 C-68.21996094 194.19974609 -66.93992187 194.21199219 -65.62109375 194.22460938 C-59.02648514 194.23483886 -53.30109921 193.95601132 -47 192 C-46.12214844 191.81179688 -45.24429688 191.62359375 -44.33984375 191.4296875 C-32.73213293 188.74953313 -22.36935553 182.34362995 -12.85546875 175.34765625 C-8.76685347 172.37803041 -4.92289175 172.40227959 0 173 C5.3035228 175.70179463 9.09832298 179.29496895 11 185 C11.50296479 191.13617038 11.12276926 194.13724652 7 199 C-6.48618695 212.48618695 -25.75284251 219.83571095 -44 224 C-44.69802734 224.17805176 -45.39605469 224.35610352 -46.11523438 224.53955078 C-54.01013467 226.38466219 -61.93651415 226.3974518 -70 226.375 C-71.09899124 226.37418427 -71.09899124 226.37418427 -72.22018433 226.37335205 C-83.57051269 226.3346005 -94.17196662 225.59739907 -105 222 C-105.99193359 221.68651611 -105.99193359 221.68651611 -107.00390625 221.36669922 C-140.23797107 210.6808908 -165.93437562 187.83782985 -182 157 C-196.47937316 128.79254191 -198.03253376 92.9947246 -188.4375 63 C-179.07520934 35.74845872 -160.49586875 12.20111652 -136 -3 C-135.10796875 -3.59941406 -134.2159375 -4.19882813 -133.296875 -4.81640625 C-92.70257213 -30.73876823 -39.07777993 -25.56163024 0 0 Z " fill="#FDFCFE" transform="translate(297,104)"/>
<path d="M0 0 C0.86467896 -0.00540298 1.72935791 -0.01080597 2.62023926 -0.01637268 C5.45031012 -0.02877866 8.27934732 -0.01242352 11.109375 0.00561523 C13.09277398 0.00546006 15.07617325 0.00396798 17.05957031 0.00120544 C21.20521542 -0.00017491 25.35051304 0.01231866 29.49609375 0.03515625 C34.79186505 0.06353953 40.08705955 0.06079855 45.38287354 0.04806614 C49.47514717 0.04108857 53.56728909 0.04892196 57.6595459 0.06132317 C59.61144505 0.06581747 61.56335843 0.06619226 63.51525879 0.06225777 C66.25004735 0.05932508 68.9840599 0.07595009 71.71875 0.09765625 C72.51381958 0.0931546 73.30888916 0.08865295 74.12805176 0.08401489 C82.8610059 0.19833183 89.75674909 2.60043522 96.1328125 8.59545898 C101.48071295 14.49992826 103.29897058 20.67432364 103.1953125 28.52124023 C102.30971615 36.37833346 98.04147591 41.97267898 92.21484375 47.02905273 C85.8636797 50.99984684 80.05552198 51.94651557 72.74047852 51.90576172 C71.86619202 51.91262497 70.99190552 51.91948822 70.09112549 51.92655945 C67.22334189 51.94474473 64.3561097 51.94100185 61.48828125 51.93530273 C59.48103153 51.93986844 57.47378338 51.94517517 55.46653748 51.95118713 C51.26791009 51.96010196 47.06947308 51.95771356 42.87084961 51.94775391 C37.50659814 51.93626533 32.14300508 51.95648258 26.77884007 51.98567104 C22.63595956 52.00407029 18.49323576 52.00373317 14.35032463 51.99803352 C12.37329116 51.99788077 10.39624675 52.0038868 8.4192524 52.016325 C5.64831062 52.0313041 2.87857172 52.02050758 0.10766602 52.00341797 C-1.10132103 52.01791992 -1.10132103 52.01791992 -2.33473206 52.03271484 C-9.9492317 51.93502123 -16.18337363 49.41508739 -21.953125 44.43920898 C-26.88702412 39.08076505 -29.24921691 32.09881962 -29.640625 24.87670898 C-29.21780526 17.23867501 -25.64039431 11.46982689 -20.41015625 6.10717773 C-13.97743764 1.55666595 -7.78802188 -0.09470159 0 0 Z " fill="#5A2EF1" transform="translate(202.140625,180.498291015625)"/>
<path d="M0 0 C0.86467896 -0.00540298 1.72935791 -0.01080597 2.62023926 -0.01637268 C5.45031012 -0.02877866 8.27934732 -0.01242352 11.109375 0.00561523 C13.09277398 0.00546006 15.07617325 0.00396798 17.05957031 0.00120544 C21.20521542 -0.00017491 25.35051304 0.01231866 29.49609375 0.03515625 C34.79186505 0.06353953 40.08705955 0.06079855 45.38287354 0.04806614 C49.47514717 0.04108857 53.56728909 0.04892196 57.6595459 0.06132317 C59.61144505 0.06581747 61.56335843 0.06619226 63.51525879 0.06225777 C66.25004735 0.05932508 68.9840599 0.07595009 71.71875 0.09765625 C72.51381958 0.0931546 73.30888916 0.08865295 74.12805176 0.08401489 C82.8610059 0.19833183 89.75674909 2.60043522 96.1328125 8.59545898 C101.48071295 14.49992826 103.29897058 20.67432364 103.1953125 28.52124023 C102.30971615 36.37833346 98.04147591 41.97267898 92.21484375 47.02905273 C85.8636797 50.99984684 80.05552198 51.94651557 72.74047852 51.90576172 C71.86619202 51.91262497 70.99190552 51.91948822 70.09112549 51.92655945 C67.22334189 51.94474473 64.3561097 51.94100185 61.48828125 51.93530273 C59.48103153 51.93986844 57.47378338 51.94517517 55.46653748 51.95118713 C51.26791009 51.96010196 47.06947308 51.95771356 42.87084961 51.94775391 C37.50659814 51.93626533 32.14300508 51.95648258 26.77884007 51.98567104 C22.63595956 52.00407029 18.49323576 52.00373317 14.35032463 51.99803352 C12.37329116 51.99788077 10.39624675 52.0038868 8.4192524 52.016325 C5.64831062 52.0313041 2.87857172 52.02050758 0.10766602 52.00341797 C-1.10132103 52.01791992 -1.10132103 52.01791992 -2.33473206 52.03271484 C-9.9492317 51.93502123 -16.18337363 49.41508739 -21.953125 44.43920898 C-26.88702412 39.08076505 -29.24921691 32.09881962 -29.640625 24.87670898 C-29.21780526 17.23867501 -25.64039431 11.46982689 -20.41015625 6.10717773 C-13.97743764 1.55666595 -7.78802188 -0.09470159 0 0 Z M-23.203125 13.12670898 C-26.59374662 19.0329531 -26.8205185 24.77728283 -26.140625 31.50170898 C-25.18049513 34.45672009 -23.84305326 36.91259934 -22.140625 39.50170898 C-21.274375 40.86295898 -21.274375 40.86295898 -20.390625 42.25170898 C-15.52528203 47.11705196 -10.08323779 48.94382223 -3.29098511 49.06604004 C-2.45648834 49.06108521 -1.62199158 49.05613037 -0.76220703 49.05102539 C0.13973389 49.06124725 1.0416748 49.07146912 1.97094727 49.08200073 C4.93142773 49.10963906 7.89096892 49.10789128 10.8515625 49.10327148 C12.92367901 49.11105404 14.99579235 49.11972516 17.06790161 49.12924194 C21.40360878 49.14413336 25.73899015 49.14360825 30.07470703 49.13305664 C35.61176629 49.12147283 41.1474863 49.15532859 46.68432426 49.20174599 C50.96196192 49.23131079 55.23928037 49.23295201 59.51700211 49.22672653 C61.55742164 49.22774851 63.59786008 49.2381402 65.63817978 49.25835037 C80.92997571 49.76910266 80.92997571 49.76910266 93.859375 42.50170898 C99.36244811 35.585393 100.57599014 29.23630106 99.859375 20.50170898 C98.13835744 14.5287657 94.80238137 10.19981005 89.859375 6.50170898 C84.3002504 3.64555872 79.88608692 3.05574712 73.6862793 3.06591797 C72.34821732 3.05080421 72.34821732 3.05080421 70.98312378 3.03538513 C68.04981773 3.0070134 65.11702827 3.00103398 62.18359375 2.99780273 C60.13246962 2.98815393 58.08134753 2.97806088 56.03022766 2.96754456 C51.73567929 2.94960999 47.44131168 2.94402076 43.14672852 2.94580078 C37.66236666 2.94610542 32.17917198 2.90515796 26.69508648 2.85348415 C22.45950571 2.82001362 18.22420386 2.81404649 13.98850441 2.81562996 C11.96760855 2.81210587 9.94670424 2.79892665 7.92593956 2.77563286 C-9.73368986 2.54791322 -9.73368986 2.54791322 -23.203125 13.12670898 Z " fill="#E5DEFC" transform="translate(202.140625,180.498291015625)"/>
<path d="M0 0 C3.19359412 1.89008632 5.77339877 4.02056512 8 7 C8 7.99 8 8.98 8 10 C7.01 10 6.02 10 5 10 C4.7525 9.38125 4.505 8.7625 4.25 8.125 C2.7343349 5.54836933 1.74486397 5.10082986 -1 4 C-4.39591684 3.47542748 -7.60757043 3.43275934 -11 4 C-13.93973281 6.35418376 -13.93973281 6.35418376 -16 9 C-16.99 9 -17.98 9 -19 9 C-15.79255298 0.33989305 -8.46059611 -1.92123551 0 0 Z " fill="#EFEAFD" transform="translate(270,202)"/>
<path d="M0 0 C4.28843044 2.00126754 7.36205123 4.04307684 10 8 C10 8.99 10 9.98 10 11 C9.01 11 8.02 11 7 11 C6.319375 9.824375 6.319375 9.824375 5.625 8.625 C3.66352899 5.4564699 2.56510699 4.91200411 -1 4 C-5.66185403 3.51439021 -8.2456459 4.18423443 -12 7 C-12.99 8.485 -12.99 8.485 -14 10 C-14.66 10 -15.32 10 -16 10 C-15.7416116 6.51175659 -14.73533264 5.75785753 -12.0625 3.3125 C-7.67446301 -0.00091569 -5.54420316 -0.53653579 0 0 Z " fill="#DED5FC" transform="translate(216,201)"/>
<path d="M0 0 C0.33 0.99 0.66 1.98 1 3 C-2.65802062 9.03883404 -7.63298515 12.31915164 -14 15 C-14.33 14.01 -14.66 13.02 -15 12 C-14.31292969 11.62488281 -13.62585938 11.24976563 -12.91796875 10.86328125 C-12.01691406 10.35152344 -11.11585938 9.83976563 -10.1875 9.3125 C-9.29417969 8.81363281 -8.40085937 8.31476563 -7.48046875 7.80078125 C-4.73444979 5.80721473 -3.62263693 3.9382885 -2 1 C-1.34 0.67 -0.68 0.34 0 0 Z " fill="#ECE7FD" transform="translate(301,216)"/>
<path d="M0 0 C0 0.66 0 1.32 0 2 C-1.051875 2.226875 -2.10375 2.45375 -3.1875 2.6875 C-7.17404735 3.79308095 -9.20700276 5.96760299 -12 9 C-12.66 9 -13.32 9 -14 9 C-13.7550929 5.69375418 -12.72277662 4.70957551 -10.375 2.25 C-7.01309754 -0.41830608 -4.25599681 -0.42559968 0 0 Z " fill="#F1EEFD" transform="translate(214,202)"/>
<path d="M0 0 C2.75 2.375 2.75 2.375 5 5 C5 5.99 5 6.98 5 8 C4.01 8 3.02 8 2 8 C1.7525 7.38125 1.505 6.7625 1.25 6.125 C-0.30230693 3.48607822 -1.10986942 2.98872888 -4 2 C-6.66656713 1.55557214 -9.30655282 1.26934472 -12 1 C-12 0.67 -12 0.34 -12 0 C-2.84468665 -1.373297 -2.84468665 -1.373297 0 0 Z " fill="#DAD0FB" transform="translate(273,204)"/>
<path d="M0 0 C0.66 0.33 1.32 0.66 2 1 C1.37240135 3.92879371 0.41377341 6.36095629 -1 9 C-1.66 8.67 -2.32 8.34 -3 8 C-1.125 2.25 -1.125 2.25 0 0 Z " fill="#E0D8FC" transform="translate(177,192)"/>
<path d="M0 0 C3.465 1.98 3.465 1.98 7 4 C5.02 4.99 5.02 4.99 3 6 C1.68 4.35 0.36 2.7 -1 1 C-0.67 0.67 -0.34 0.34 0 0 Z " fill="#EEEAFD" transform="translate(181,222)"/>
</svg>
