<svg width="810" height="170" viewBox="0 0 810 170" fill="none" xmlns="http://www.w3.org/2000/svg">
<path d="M224.054 131.746C231.428 131.746 238.638 130.599 245.521 128.141C252.239 125.847 258.466 122.406 264.037 118.146C265.84 116.835 266.823 115.032 267.151 112.738C267.478 110.444 266.987 108.478 265.512 106.675C264.201 104.873 262.399 103.89 260.104 103.562C257.81 103.234 255.844 103.726 254.042 105.201C245.193 111.919 235.198 115.36 224.055 115.36C210.29 115.36 198.656 110.444 188.988 100.776C179.32 91.1079 174.568 79.4734 174.568 65.8729C174.568 52.2724 179.32 40.4739 188.988 30.8059C198.656 21.138 210.29 16.3858 224.055 16.3858C235.361 16.3858 245.521 19.827 254.37 26.8734C256.172 28.3481 258.302 28.8397 260.433 28.512C262.727 28.3481 264.529 27.2011 266.004 25.3986C267.315 23.76 267.97 21.6298 267.643 19.3357C267.315 17.2055 266.332 15.4031 264.529 13.9282C258.958 9.50396 252.568 6.0628 245.849 3.76886C238.802 1.31091 231.428 0 224.055 0C215.042 0 206.522 1.80252 198.329 5.24358C190.463 8.52084 183.417 13.2728 177.354 19.3354C171.292 25.3984 166.54 32.2806 163.263 40.1465C159.821 48.3397 158.183 56.861 158.183 65.8727C158.183 74.8852 159.821 83.4057 163.263 91.4357C166.54 99.465 171.292 106.347 177.354 112.41C183.417 118.473 190.464 123.225 198.329 126.502C206.522 129.943 215.042 131.746 224.054 131.746Z" fill="#6E17EF"/>
<path d="M370.003 44.4032C363.94 41.1259 357.222 39.4873 349.684 39.4873C344.113 39.4873 339.034 40.4705 334.282 42.4369C329.366 44.4032 325.269 47.025 321.828 50.4661V10.3199C321.828 7.86195 321.009 5.89563 319.534 4.257C317.895 2.78227 315.929 1.96295 313.471 1.96295C311.013 1.96295 309.047 2.78227 307.408 4.257C305.769 5.89563 305.114 7.86195 305.114 10.3199V121.75C305.114 124.208 305.769 126.174 307.408 127.813C309.047 129.451 311.013 130.107 313.471 130.107C315.929 130.107 317.895 129.451 319.534 127.813C321.009 126.174 321.828 124.208 321.828 121.75V75.5408C321.828 71.6081 322.811 68.1669 324.941 64.8901C327.071 61.7767 330.021 59.3188 333.79 57.3524C337.559 55.5498 341.819 54.5667 346.408 54.5667C354.273 54.5667 360.5 56.8607 365.252 61.4489C370.003 66.0371 372.461 72.5919 372.461 81.4405V121.751C372.461 124.209 373.117 126.175 374.755 127.814C376.394 129.452 378.36 130.108 380.818 130.108C383.112 130.108 385.079 129.452 386.717 127.814C388.356 126.175 389.175 124.209 389.175 121.751V81.4405C389.175 72.5919 387.373 65.0542 384.096 58.8273C380.654 52.6004 375.903 47.6843 370.004 44.4072L370.003 44.4032Z" fill="#5D29F1"/>
<path d="M503.215 53.0964C494.366 44.2479 483.716 39.66 471.098 39.66C458.644 39.66 447.829 44.2482 438.981 53.0964C430.132 61.945 425.707 72.5957 425.707 85.2136C425.707 97.8315 430.132 108.482 438.981 117.331C447.829 126.179 458.644 130.604 471.098 130.604C482.404 130.604 492.4 126.999 500.921 119.625V122.739C500.921 125.033 501.576 126.835 503.215 128.31C504.689 129.949 506.492 130.604 508.786 130.604C510.916 130.604 512.719 129.948 514.357 128.31C515.832 126.835 516.651 125.033 516.651 122.739V85.214C516.651 72.5961 512.227 61.945 503.215 53.0964ZM471.098 114.873C462.905 114.873 455.858 112.088 450.124 106.188C444.225 100.453 441.439 93.4075 441.439 85.2143C441.439 77.0212 444.225 69.9747 450.124 64.2401C455.859 58.341 462.905 55.3916 471.098 55.3916C479.291 55.3916 486.337 58.3411 492.072 64.2401C497.971 69.9753 500.921 77.0212 500.921 85.2143C500.921 93.4075 497.971 100.454 492.072 106.188C486.337 112.088 479.291 114.873 471.098 114.873Z" fill="#4C3BF2"/>
<path d="M592.531 113.558C587.779 113.558 583.682 111.92 580.405 108.479C576.964 105.201 575.325 101.105 575.325 96.3531V57.8449H589.91C591.876 57.8449 593.678 57.1894 595.153 55.7147C596.464 54.4037 597.283 52.6013 597.283 50.471C597.283 48.5047 596.464 46.7022 595.153 45.2275C593.678 43.9165 591.876 43.0972 589.91 43.0972H575.325V19.9927C575.325 17.6987 574.506 15.8961 572.867 14.2575C571.229 12.6189 569.426 11.7996 567.132 11.7996C564.838 11.7996 562.872 12.6189 561.233 14.2575C559.595 15.8961 558.939 17.6987 558.939 19.9927V96.3527C558.939 105.693 562.216 113.558 568.771 120.113C575.326 126.667 583.191 129.945 592.531 129.945C594.825 129.945 596.628 129.289 598.266 127.651C599.905 126.012 600.724 124.046 600.724 121.752C600.724 119.458 599.905 117.655 598.266 116.016C596.628 114.378 594.825 113.558 592.531 113.558Z" fill="#3B4DF4"/>
<path d="M701.626 122.242C701.626 117.162 699.004 114.54 693.925 114.54H652.304L698.513 53.2559C699.496 51.945 699.987 50.3064 699.987 48.0124C699.987 42.9326 697.365 40.3108 692.286 40.3108H636.409C631.165 40.3108 628.707 42.9327 628.707 48.0124C628.707 53.256 631.165 55.7139 636.409 55.7139H678.194L631.821 116.998C630.838 118.309 630.346 120.112 630.346 122.242C630.346 127.486 632.804 129.944 638.048 129.944H693.925C699.005 129.944 701.626 127.486 701.626 122.242Z" fill="#2A5EF5"/>
<path d="M809.999 47.5191C809.999 44.5696 808.196 42.4393 804.919 41.1285C803.608 40.6369 802.297 40.3092 800.987 40.3092C798.037 40.3092 795.907 41.9478 794.596 45.0612L768.214 104.544L738.227 44.8971C736.589 41.9475 734.295 40.3089 731.345 40.3089C730.034 40.3089 729.051 40.6366 728.068 40.9643C726.593 41.6198 725.446 42.603 724.627 43.75C723.644 45.0609 723.316 46.3718 723.316 47.6827C723.316 48.9936 723.48 50.1406 724.135 51.1238L761.004 121.094L744.618 157.963C743.963 159.274 743.635 160.585 743.635 161.896C743.635 164.845 745.274 166.975 748.551 168.286C750.026 168.942 751.336 169.269 752.483 169.269C755.433 169.269 757.563 167.631 758.874 164.19L809.012 51.4606C809.667 49.9859 809.995 48.6749 809.995 47.5279L809.999 47.5191Z" fill="#1970F7"/>
<path d="M55.3171 59.6799C29.4181 59.674 22.9216 59.6848 22.3453 59.7374C21.9512 59.7736 21.298 59.8525 20.8942 59.9131C20.491 59.9736 19.7939 60.1015 19.3453 60.1972C18.8973 60.2929 18.1687 60.4752 17.7262 60.6019C17.2843 60.7287 16.6311 60.938 16.2757 61.0663C15.9198 61.1946 15.3364 61.4237 14.9784 61.5754C14.6205 61.7266 13.9621 62.0342 13.5152 62.2577C13.0687 62.4812 12.4449 62.8167 12.1297 63.0036C11.8141 63.1904 11.281 63.526 10.945 63.7495C10.609 63.973 10.1278 64.3085 9.87583 64.4953C9.62381 64.6822 9.13147 65.0717 8.78116 65.3614C8.43139 65.6511 7.7074 66.3258 7.1733 66.8604C6.63922 67.395 5.98398 68.0961 5.71713 68.4178C5.45084 68.7396 5.05932 69.234 4.84701 69.5165C4.6352 69.7986 4.24521 70.3596 3.98045 70.7639C3.7157 71.1677 3.34351 71.773 3.15259 72.1091C2.96217 72.4452 2.62869 73.0867 2.41281 73.5347C2.19643 73.9828 1.87005 74.7272 1.6883 75.1895C1.50602 75.6513 1.2647 76.3198 1.15217 76.6746C1.03965 77.0295 0.876214 77.584 0.789154 77.9067C0.702613 78.23 0.56513 78.8217 0.483668 79.2224C0.402205 79.6225 0.289171 80.2706 0.233163 80.6627C0.176608 81.0547 0.101297 81.6616 0.0651468 82.0119C0.0274435 82.3805 0 83.3015 0 84.2012C0 85.1009 0.0274435 86.0219 0.0651468 86.3906C0.101287 86.7404 0.176647 87.3478 0.233163 87.7398C0.289132 88.1318 0.402205 88.7799 0.483668 89.1801C0.56513 89.5808 0.702593 90.1724 0.789154 90.4957C0.876185 90.8185 1.03965 91.373 1.15217 91.7278C1.2647 92.0827 1.50602 92.7507 1.6883 93.2129C1.87005 93.6747 2.1959 94.4195 2.41229 94.8677C2.62816 95.3157 2.96216 95.9572 3.15361 96.2933C3.34555 96.6293 3.71621 97.2316 3.9774 97.6313C4.23808 98.031 4.62809 98.5926 4.84295 98.8788C5.05831 99.1649 5.45187 99.6623 5.71815 99.9846C5.98392 100.306 6.63919 101.007 7.17324 101.542C7.70733 102.077 8.4196 102.741 8.75561 103.019C9.09164 103.297 9.58449 103.687 9.85028 103.885C10.1166 104.084 10.586 104.416 10.8941 104.621C11.2021 104.827 11.7178 105.153 12.0396 105.346C12.3619 105.539 13.1291 105.944 13.7452 106.247C14.3613 106.549 15.1403 106.905 15.4763 107.038C15.8123 107.17 16.4309 107.392 16.851 107.531C17.271 107.67 18.0042 107.882 18.4802 108.002C18.9563 108.122 19.6782 108.281 20.084 108.353C20.4898 108.426 21.086 108.519 21.4077 108.56C21.73 108.601 22.3257 108.66 22.7314 108.691C23.2645 108.732 32.3648 108.743 55.4435 108.731L87.418 108.715L88.2581 108.603C88.7199 108.541 89.419 108.432 89.811 108.361C90.203 108.288 90.902 108.137 91.3639 108.024C91.8256 107.91 92.5704 107.696 93.0186 107.548C93.4666 107.4 94.1081 107.17 94.4442 107.038C94.7802 106.905 95.3759 106.644 95.7679 106.458C96.1599 106.272 96.7297 105.987 97.0342 105.824C97.3381 105.661 97.7623 105.423 97.9761 105.295C98.1894 105.166 98.6166 104.895 98.9246 104.693C99.2326 104.49 99.7596 104.118 100.096 103.866C100.432 103.613 100.936 103.217 101.216 102.984C101.496 102.751 102.174 102.113 102.723 101.566C103.272 101.018 103.948 100.295 104.225 99.9592C104.502 99.6232 104.918 99.0916 105.149 98.778C105.38 98.4649 105.76 97.915 105.993 97.5561C106.227 97.1976 106.575 96.6294 106.766 96.2934C106.958 95.9574 107.292 95.3158 107.507 94.8678C107.723 94.4198 108.014 93.7666 108.155 93.4167C108.296 93.0664 108.503 92.5165 108.614 92.1938C108.725 91.8715 108.898 91.3191 108.999 90.9663C109.1 90.6134 109.25 90.0295 109.332 89.6685C109.414 89.3081 109.54 88.6574 109.612 88.2236C109.684 87.7893 109.782 87.079 109.829 86.6452C109.891 86.0801 109.916 85.4008 109.918 84.2522C109.92 83.29 109.895 82.3939 109.855 82.012C109.819 81.6617 109.744 81.0548 109.687 80.6628C109.631 80.2708 109.518 79.6226 109.437 79.2225C109.355 78.8218 109.217 78.2261 109.13 77.8982C109.043 77.5708 108.868 76.9817 108.741 76.5897C108.614 76.1976 108.375 75.5332 108.21 75.1132C108.044 74.6931 107.658 73.8454 107.351 73.2294C107.044 72.6133 106.58 71.7656 106.32 71.3456C106.06 70.9256 105.656 70.3131 105.421 69.9842C105.187 69.6553 104.786 69.1253 104.531 68.806C104.276 68.4868 103.792 67.9221 103.456 67.5511C103.12 67.1799 102.558 66.6107 102.207 66.2854C101.856 65.9605 101.36 65.5191 101.104 65.3052C100.849 65.0914 100.413 64.7442 100.135 64.5339C99.8579 64.3236 99.2658 63.9107 98.8192 63.6165C98.3732 63.3222 97.7103 62.9148 97.3462 62.7117C96.9822 62.5081 96.3636 62.1883 95.9715 62.0015C95.5795 61.8146 94.968 61.5437 94.6131 61.3997C94.2582 61.2556 93.5939 61.0132 93.1366 60.861C92.6794 60.7088 91.8821 60.4801 91.3638 60.3528C90.8455 60.2255 90.0782 60.0642 89.6582 59.9934C89.2381 59.9232 88.5966 59.8254 88.2326 59.7765L87.5707 59.6879L55.3171 59.6799ZM55.368 64.0625L87.2146 64.0684L87.8511 64.1555C88.2013 64.2033 88.7624 64.2894 89.0985 64.3464C89.4345 64.4034 90.0302 64.5287 90.4222 64.6249C90.8142 64.7211 91.3987 64.8825 91.7205 64.9844C92.0423 65.0857 92.6268 65.2949 93.0188 65.4487C93.4109 65.6024 94.087 65.9049 94.5208 66.1202C94.9551 66.3356 95.6144 66.694 95.9862 66.9165C96.3573 67.139 96.9342 67.5163 97.2677 67.7546C97.6012 67.9933 98.1679 68.4322 98.5269 68.7306C98.8858 69.029 99.5355 69.6359 99.9703 70.0798C100.405 70.5238 101.008 71.1959 101.311 71.5742C101.613 71.952 102.074 72.5823 102.335 72.9743C102.595 73.3664 102.964 73.962 103.154 74.298C103.344 74.6341 103.613 75.1493 103.751 75.4436C103.889 75.7374 104.113 76.247 104.248 76.5755C104.383 76.9044 104.597 77.4884 104.723 77.8738C104.848 78.2592 105.012 78.8147 105.086 79.1075C105.16 79.4007 105.274 79.9048 105.34 80.2276C105.405 80.5509 105.512 81.2047 105.576 81.6807C105.676 82.4276 105.693 82.7692 105.694 84.1754C105.695 85.4565 105.675 85.9569 105.603 86.5175C105.553 86.9096 105.454 87.5394 105.385 87.9176C105.315 88.2954 105.19 88.8799 105.105 89.216C105.021 89.552 104.848 90.1426 104.723 90.528C104.597 90.9134 104.383 91.4973 104.248 91.8263C104.112 92.1547 103.899 92.6409 103.776 92.9072C103.651 93.1729 103.383 93.6887 103.18 94.0527C102.976 94.4167 102.596 95.0353 102.335 95.4274C102.075 95.8195 101.614 96.4493 101.312 96.8275C101.011 97.2053 100.339 97.9401 99.8191 98.4598C99.2993 98.9791 98.588 99.6328 98.2377 99.9125C97.8879 100.191 97.3829 100.572 97.116 100.758C96.8492 100.944 96.3569 101.262 96.0213 101.465C95.6863 101.667 95.08 102 94.6737 102.204C94.2679 102.408 93.6875 102.679 93.384 102.807C93.0805 102.936 92.4619 103.164 92.0093 103.316C91.5566 103.466 90.8539 103.671 90.4478 103.771C90.042 103.87 89.4458 103.997 89.1235 104.052C88.8012 104.107 88.2055 104.194 87.7998 104.245L87.062 104.337H23.0689L22.3052 104.245C21.8852 104.194 21.2324 104.096 20.8541 104.027C20.4764 103.958 19.846 103.818 19.454 103.718C19.062 103.617 18.4087 103.421 18.0029 103.283C17.5972 103.146 16.9439 102.893 16.5519 102.724C16.1598 102.555 15.6379 102.315 15.392 102.192C15.1461 102.068 14.6879 101.815 14.3738 101.629C14.0596 101.443 13.5963 101.155 13.3443 100.988C13.0923 100.82 12.6687 100.52 12.4024 100.321C12.1367 100.122 11.7584 99.8223 11.5623 99.6558C11.3663 99.4888 11.0023 99.1681 10.7533 98.9431C10.5049 98.7175 10.0599 98.2695 9.76453 97.9476C9.46923 97.6253 9.00795 97.0872 8.7401 96.7512C8.47178 96.4152 8.06599 95.8648 7.8379 95.5283C7.61032 95.1917 7.26002 94.6301 7.05993 94.2808C6.85933 93.9316 6.57065 93.3878 6.4174 93.0732C6.26415 92.7585 6.02637 92.2265 5.8884 91.8915C5.75093 91.5564 5.52233 90.9292 5.38079 90.4974C5.23925 90.0662 5.05392 89.4292 4.96889 89.0826C4.88333 88.7358 4.7576 88.1279 4.68886 87.7313C4.62069 87.3347 4.52646 86.6591 4.48063 86.2293C4.42612 85.7242 4.39663 85.008 4.39663 84.2009C4.39663 83.3939 4.42612 82.6775 4.48063 82.1724C4.52644 81.7427 4.62065 81.0671 4.68886 80.6704C4.75763 80.2738 4.88336 79.6659 4.96889 79.3192C5.05397 78.9724 5.23926 78.3355 5.38079 77.9043C5.52233 77.4726 5.7489 76.8515 5.88433 76.5235C6.01976 76.1956 6.22035 75.7322 6.33084 75.4944C6.44082 75.2561 6.69691 74.7638 6.89955 74.3997C7.10167 74.0357 7.50542 73.3824 7.79615 72.9487C8.08687 72.5144 8.49622 71.9447 8.7065 71.682C8.91626 71.4193 9.33172 70.932 9.63009 70.5995C9.92794 70.2666 10.4157 69.7707 10.714 69.4977C11.0129 69.2243 11.4518 68.8384 11.6895 68.6393C11.9278 68.4407 12.3743 68.0971 12.6823 67.8761C12.9903 67.6552 13.334 67.4138 13.446 67.34C13.5581 67.2661 13.836 67.0905 14.0641 66.949C14.2922 66.808 14.7397 66.5539 15.0595 66.3849C15.3788 66.2158 15.9826 65.9266 16.4011 65.7423C16.8202 65.5585 17.5177 65.2856 17.9521 65.1369C18.3864 64.9883 19.062 64.7841 19.454 64.6838C19.8461 64.583 20.4763 64.444 20.8552 64.3748C21.2335 64.305 21.8862 64.2124 22.3063 64.1691C22.7258 64.1253 23.1724 64.082 23.2981 64.0729C23.4239 64.0641 37.8579 64.0586 55.3743 64.0622L55.368 64.0625ZM33.9543 79.0872C33.5062 79.0766 33.0368 79.0771 32.9105 79.0882C32.7848 79.0994 32.3953 79.1458 32.045 79.1911C31.6952 79.2359 31.1453 79.3377 30.823 79.4166C30.5013 79.496 29.9636 79.6554 29.6285 79.771C29.294 79.887 28.7864 80.0917 28.5009 80.2266C28.2152 80.3616 27.7565 80.6044 27.481 80.7663C27.2051 80.9282 26.8191 81.1752 26.6231 81.3147C26.4266 81.4542 26.0946 81.7083 25.8844 81.8783C25.6746 82.0489 25.2963 82.3946 25.0437 82.6466C24.7917 82.8991 24.4302 83.2998 24.2403 83.5381C24.0504 83.7759 23.7968 84.1195 23.6767 84.3018C23.5565 84.4836 23.4033 84.7585 23.3366 84.9128C23.2342 85.148 23.2144 85.2778 23.2129 85.7284L23.2109 86.264L23.3754 86.5975C23.4813 86.8134 23.6473 87.0344 23.8438 87.2217C24.0378 87.4066 24.2923 87.5812 24.5454 87.7019L24.942 87.8913H25.502C26.002 87.8913 26.0932 87.8765 26.3513 87.7558C26.5102 87.6815 26.7464 87.5226 26.8757 87.403C27.0055 87.2833 27.2403 87.0033 27.3971 86.7808C27.5539 86.5583 27.8904 86.1582 28.145 85.8914C28.3996 85.6251 28.758 85.2865 28.9418 85.1399C29.1256 84.9932 29.4092 84.7875 29.5726 84.6832C29.7361 84.5783 30.067 84.3945 30.3078 84.2743C30.5492 84.1542 30.9753 83.977 31.2553 83.8807C31.5354 83.784 31.9707 83.6618 32.2227 83.6089C32.5837 83.5331 32.8968 83.5127 33.6992 83.5127C34.4894 83.5127 34.8142 83.5336 35.1503 83.6048C35.3885 83.6557 35.8152 83.7743 36.0993 83.869C36.3834 83.9637 36.8305 84.148 37.0921 84.2794C37.3543 84.4107 37.7693 84.6556 38.0147 84.8231C38.2601 84.9912 38.6791 85.3353 38.9464 85.5879C39.2137 85.8409 39.6267 86.3068 39.8644 86.6229C40.1017 86.9391 40.3675 87.2578 40.4545 87.3311C40.5416 87.4039 40.7234 87.52 40.8593 87.5887C40.9947 87.6575 41.2366 87.7481 41.397 87.7898C41.5574 87.8316 41.8053 87.8656 41.9474 87.8656C42.0894 87.8656 42.3374 87.8314 42.4977 87.7898C42.6581 87.748 42.8979 87.6585 43.0313 87.5913C43.1642 87.5236 43.3796 87.3545 43.5099 87.2155C43.6397 87.0765 43.8088 86.8392 43.8857 86.6885C43.9621 86.5378 44.0552 86.3001 44.0929 86.1601C44.13 86.0201 44.1611 85.7899 44.1617 85.6489C44.1617 85.5078 44.1281 85.2609 44.0858 85.1C44.044 84.9391 43.9651 84.7202 43.9106 84.6128C43.8556 84.5053 43.6337 84.1795 43.4173 83.8888C43.2009 83.598 42.7818 83.1103 42.4855 82.8053C42.1897 82.4999 41.7411 82.0778 41.4891 81.8665C41.2371 81.6552 40.7559 81.3018 40.4199 81.0814C40.0839 80.8609 39.5111 80.535 39.1471 80.3569C38.7831 80.1787 38.2653 79.9516 37.996 79.8523C37.7272 79.7535 37.3148 79.6165 37.0795 79.5488C36.8448 79.4807 36.4233 79.3777 36.1432 79.3202C35.8632 79.2627 35.4396 79.1909 35.2013 79.1609C34.9635 79.1303 34.4024 79.0974 33.9543 79.0872ZM77.0279 79.0872C76.5798 79.0766 76.1104 79.0771 75.9841 79.0882C75.8584 79.0994 75.4689 79.1458 75.1186 79.1911C74.7688 79.2359 74.2189 79.3377 73.8966 79.4166C73.5749 79.496 73.0372 79.6554 72.7021 79.771C72.3676 79.887 71.86 80.0917 71.5745 80.2266C71.2888 80.3616 70.8301 80.6044 70.5546 80.7663C70.2787 80.9282 69.8927 81.1752 69.6967 81.3147C69.5002 81.4542 69.1682 81.7083 68.9579 81.8783C68.7482 82.0489 68.3699 82.3946 68.1173 82.6466C67.8653 82.8991 67.5038 83.2998 67.3139 83.5381C67.124 83.7759 66.8705 84.1195 66.7503 84.3018C66.6302 84.4836 66.4769 84.7585 66.4102 84.9128C66.3079 85.148 66.288 85.2778 66.2865 85.7284L66.2845 86.264L66.449 86.5975C66.5549 86.8134 66.7208 87.0344 66.9174 87.2217C67.1114 87.4066 67.3659 87.5812 67.619 87.7019L68.0156 87.8913H68.5757C69.0756 87.8913 69.1668 87.8765 69.4249 87.7558C69.5838 87.6815 69.82 87.5226 69.9493 87.403C70.0792 87.2833 70.3139 87.0033 70.4707 86.7808C70.6275 86.5583 70.9641 86.1582 71.2186 85.8914C71.4732 85.6251 71.8316 85.2865 72.0154 85.1399C72.1992 84.9932 72.4828 84.7875 72.6463 84.6832C72.8097 84.5783 73.1406 84.3945 73.3814 84.2743C73.6228 84.1542 74.0489 83.977 74.3289 83.8807C74.609 83.784 75.0443 83.6618 75.2963 83.6089C75.6573 83.5331 75.9704 83.5127 76.7728 83.5127C77.563 83.5127 77.8878 83.5336 78.2239 83.6048C78.4622 83.6557 78.8888 83.7743 79.1729 83.869C79.457 83.9637 79.9041 84.148 80.1657 84.2794C80.4279 84.4107 80.8429 84.6556 81.0883 84.8231C81.3337 84.9912 81.7527 85.3353 82.0201 85.5879C82.2874 85.8409 82.7003 86.3068 82.9381 86.6229C83.1753 86.9391 83.4411 87.2578 83.5282 87.3311C83.6153 87.4039 83.797 87.52 83.9329 87.5887C84.0684 87.6575 84.3102 87.7481 84.4706 87.7898C84.631 87.8316 84.8611 87.8656 84.9818 87.8656C85.1024 87.8656 85.4497 87.7851 85.7531 87.6874L86.305 87.5087L86.5616 87.2373C86.7027 87.0882 86.8814 86.8422 86.9583 86.6905C87.0352 86.5388 87.1288 86.3 87.1665 86.16C87.2037 86.02 87.2347 85.7898 87.2352 85.6488C87.2352 85.5078 87.2017 85.2609 87.1595 85.1C87.1178 84.9391 87.0388 84.7201 86.9843 84.6127C86.9293 84.5053 86.7073 84.1794 86.491 83.8887C86.2746 83.598 85.8555 83.1102 85.5592 82.8053C85.2634 82.4998 84.8148 82.0777 84.5628 81.8664C84.3108 81.6551 83.8296 81.3017 83.4936 81.0813C83.1576 80.8608 82.5848 80.535 82.2208 80.3568C81.8568 80.1786 81.339 79.9515 81.0697 79.8522C80.8009 79.7535 80.3884 79.6165 80.1532 79.5488C79.9185 79.4806 79.4969 79.3777 79.2169 79.3202C78.9369 79.2626 78.5133 79.1909 78.275 79.1608C78.0367 79.1302 77.476 79.0974 77.0279 79.0872Z" fill="#1970F7"/>
</svg>
